<svg width="60" height="60" viewBox="0 0 60 60" fill="none" xmlns="http://www.w3.org/2000/svg">
<path d="M44.8322 37.3801V41.8801C44.8339 42.2979 44.7483 42.7114 44.5809 43.0942C44.4136 43.4769 44.1681 43.8205 43.8603 44.1029C43.5525 44.3854 43.189 44.6004 42.7933 44.7342C42.3976 44.868 41.9782 44.9177 41.5622 44.8801C36.9464 44.3786 32.5127 42.8014 28.6172 40.2751C24.9929 37.9721 21.9202 34.8994 19.6172 31.2751C17.0821 27.362 15.5045 22.9066 15.0122 18.2701C14.9747 17.8553 15.024 17.4373 15.1569 17.0426C15.2899 16.6479 15.5035 16.2852 15.7843 15.9776C16.0651 15.67 16.4069 15.4242 16.7879 15.2559C17.1688 15.0876 17.5807 15.0005 17.9972 15.0001H22.4972C23.2251 14.993 23.9309 15.2508 24.4828 15.7254C25.0348 16.2001 25.3953 16.8593 25.4972 17.5801C25.6871 19.0202 26.0394 20.4342 26.5472 21.7951C26.749 22.332 26.7927 22.9155 26.673 23.4765C26.5534 24.0374 26.2755 24.5523 25.8722 24.9601L23.9672 26.8651C26.1025 30.6205 29.2119 33.7298 32.9672 35.8651L34.8722 33.9601C35.28 33.5569 35.7949 33.2789 36.3559 33.1593C36.9168 33.0397 37.5003 33.0833 38.0372 33.2851C39.3981 33.793 40.8121 34.1452 42.2522 34.3351C42.9808 34.4379 43.6463 34.805 44.122 35.3664C44.5977 35.9278 44.8504 36.6445 44.8322 37.3801Z" stroke="#004938" stroke-width="2" stroke-linecap="round" stroke-linejoin="round"/>
<rect x="1" y="1" width="58" height="58" rx="29" stroke="#004938" stroke-width="2"/>
</svg>
