<svg width="50" height="50" viewBox="0 0 50 50" fill="none" xmlns="http://www.w3.org/2000/svg">
<path d="M31.25 12.5H18.75C15.2982 12.5 12.5 15.2982 12.5 18.75V31.25C12.5 34.7018 15.2982 37.5 18.75 37.5H31.25C34.7018 37.5 37.5 34.7018 37.5 31.25V18.75C37.5 15.2982 34.7018 12.5 31.25 12.5Z" stroke="#F5F1F3" stroke-width="2" stroke-linecap="round" stroke-linejoin="round"/>
<path d="M29.9996 24.2125C30.1539 25.2528 29.9762 26.3153 29.4918 27.2488C29.0075 28.1823 28.2411 28.9393 27.3017 29.4121C26.3623 29.8849 25.2977 30.0495 24.2594 29.8824C23.221 29.7153 22.2618 29.2251 21.5182 28.4815C20.7745 27.7378 20.2843 26.7786 20.1172 25.7403C19.9501 24.702 20.1147 23.6374 20.5875 22.698C21.0604 21.7586 21.8174 20.9922 22.7509 20.5078C23.6844 20.0234 24.7468 19.8457 25.7871 20C26.8483 20.1574 27.8307 20.6518 28.5893 21.4104C29.3478 22.1689 29.8423 23.1514 29.9996 24.2125Z" stroke="#F5F1F3" stroke-width="2" stroke-linecap="round" stroke-linejoin="round"/>
<circle cx="32.5" cy="17.5" r="0.75" stroke="#F5F1F3"/>
</svg>
