<svg width="60" height="60" viewBox="0 0 60 60" fill="none" xmlns="http://www.w3.org/2000/svg">
<path d="M43.5 27C43.5 37.5 30 46.5 30 46.5C30 46.5 16.5 37.5 16.5 27C16.5 23.4196 17.9223 19.9858 20.4541 17.4541C22.9858 14.9223 26.4196 13.5 30 13.5C33.5804 13.5 37.0142 14.9223 39.5459 17.4541C42.0777 19.9858 43.5 23.4196 43.5 27Z" stroke="#004938" stroke-width="2" stroke-linecap="round" stroke-linejoin="round"/>
<path d="M30 31.5C32.4853 31.5 34.5 29.4853 34.5 27C34.5 24.5147 32.4853 22.5 30 22.5C27.5147 22.5 25.5 24.5147 25.5 27C25.5 29.4853 27.5147 31.5 30 31.5Z" stroke="#004938" stroke-width="2" stroke-linecap="round" stroke-linejoin="round"/>
<rect x="1" y="1" width="58" height="58" rx="29" stroke="#004938" stroke-width="2"/>
</svg>
