<svg width="61" height="60" viewBox="0 0 61 60" fill="none" xmlns="http://www.w3.org/2000/svg">
<path d="M53.0518 9.11023C55.0042 9.11023 56.6311 7.48333 56.6311 5.53093C56.6311 3.57853 55.0042 1.95162 53.0518 1.95162C51.0994 1.95162 49.4725 3.57853 49.4725 5.53093C49.4725 7.48333 51.0341 9.11023 53.0518 9.11023ZM53.0518 4.55502C53.5725 4.55502 54.0278 5.01077 54.0278 5.53097C54.0278 6.05164 53.572 6.50693 53.0518 6.50693C52.5311 6.50693 52.0758 6.05118 52.0758 5.53097C52.0754 5.01076 52.4658 4.55502 53.0518 4.55502ZM53.0518 45.4229C51.0994 45.4229 49.4725 47.0498 49.4725 49.0022C49.4725 50.9546 51.0994 52.5815 53.0518 52.5815C55.0042 52.5815 56.6311 50.9546 56.6311 49.0022C56.6306 47.0498 55.0037 45.4229 53.0518 45.4229ZM53.0518 49.9781C52.5311 49.9781 52.0758 49.5223 52.0758 49.0021C52.0758 48.4814 52.5316 48.0262 53.0518 48.0262C53.5725 48.0262 54.0278 48.4819 54.0278 49.0021C54.0278 49.5228 53.572 49.9781 53.0518 49.9781ZM56.9561 13.2751C57.8672 13.2751 58.583 13.991 58.583 14.902C58.583 15.8131 57.8672 16.5289 56.9561 16.5289C56.0451 16.5289 55.3292 15.8131 55.3292 14.902C55.3292 13.991 56.0451 13.2751 56.9561 13.2751ZM5.09043 2.92811C5.09043 2.01707 5.80629 1.30121 6.71733 1.30121C7.62838 1.30121 8.34424 2.01707 8.34424 2.92811C8.34424 3.83916 7.62838 4.55502 6.71733 4.55502C5.80629 4.55502 5.09043 3.83916 5.09043 2.92811ZM1.25105 12.364C1.25105 11.453 1.96691 10.7371 2.87795 10.7371C3.789 10.7371 4.50486 11.453 4.50486 12.364C4.50486 13.2751 3.789 13.9909 2.87795 13.9909C2.03183 13.9909 1.25105 13.2102 1.25105 12.364ZM41.1427 4.55502C41.1427 3.64398 41.8586 2.92811 42.7696 2.92811C43.6807 2.92811 44.3965 3.64398 44.3965 4.55502C44.3965 5.46606 43.6807 6.18192 42.7696 6.18192C41.8586 6.18192 41.1427 5.46606 41.1427 4.55502ZM30.2097 55.7049C30.2097 56.6159 29.4939 57.3318 28.5828 57.3318C27.6718 57.3318 26.9559 56.6159 26.9559 55.7049C26.9559 54.7938 27.6718 54.078 28.5828 54.078C29.4939 54.078 30.2097 54.8588 30.2097 55.7049ZM45.6978 55.4448C45.6978 56.1606 45.1123 56.7462 44.3964 56.7462H42.444V58.6986C42.444 59.4145 41.8584 60 41.1426 60C40.4268 60 39.8412 59.4144 39.8412 58.6986V56.7462H37.8888C37.173 56.7462 36.5874 56.1606 36.5874 55.4448C36.5874 54.7289 37.173 54.1434 37.8888 54.1434H39.8412V52.191C39.8412 51.4751 40.4268 50.8896 41.1426 50.8896C41.8584 50.8896 42.444 51.4752 42.444 52.191V54.1434H44.3964C45.1123 54.1429 45.6978 54.729 45.6978 55.4448ZM12.9645 4.55522C12.9645 3.83935 13.5501 3.25381 14.2659 3.25381H16.2183V1.30141C16.2183 0.585546 16.8039 0 17.5197 0C18.2356 0 18.8212 0.585581 18.8212 1.30141V3.25381H20.7736C21.4894 3.25381 22.075 3.83939 22.075 4.55522C22.075 5.27108 21.4894 5.85662 20.7736 5.85662H18.8212V7.80903C18.8212 8.52489 18.2356 9.11043 17.5197 9.11043C16.8039 9.11043 16.2183 8.52485 16.2183 7.80903V5.85662H14.2659C13.5501 5.85662 12.9645 5.27104 12.9645 4.55522ZM60.1447 33.8395C59.8846 32.4727 59.4938 31.1713 59.0385 29.8049V29.74C58.9736 29.5448 58.9082 29.4145 58.8433 29.2193C58.7784 28.9592 58.6481 28.6986 58.5178 28.5034C58.5178 28.4385 58.4529 28.4385 58.4529 28.3732C58.3227 28.1131 58.2577 27.9174 58.1275 27.6573C58.0625 27.527 58.0625 27.4621 57.9972 27.3318C57.8669 27.0717 57.802 26.8761 57.6717 26.6809C57.6068 26.4857 57.4765 26.3554 57.4116 26.1602C57.4116 26.0953 57.3467 26.0953 57.3467 26.0299C55.1992 22.0603 52.0102 18.8065 48.1708 16.4637L47.9107 15.8128C47.1949 13.9258 45.6328 12.494 43.6156 11.9734L41.5329 11.4527C41.0122 11.3225 40.557 11.1273 40.1661 10.8018L38.5392 9.50039C36.9772 8.19898 34.8296 7.80853 32.8777 8.45907L31.8363 8.78454C31.1205 8.97974 30.795 9.7605 30.9902 10.4114C31.1854 11.1273 31.9662 11.4528 32.6171 11.2576L33.6584 10.9321C34.7647 10.6066 36.0012 10.8018 36.9122 11.5177L38.5392 12.8191C38.6041 12.884 38.6694 12.884 38.6694 12.9494C35.9362 12.4936 33.2031 12.4936 30.4699 12.9494C30.2748 12.9494 30.0796 13.0143 29.8844 13.0796C29.6892 13.0796 29.5589 13.1446 29.3637 13.1446C28.5176 13.3398 27.7368 13.535 26.8907 13.7955C26.5652 13.8604 26.2397 13.9907 25.9797 14.121C25.8494 14.1859 25.7845 14.1859 25.6542 14.2513C24.6129 14.6417 23.6369 15.0974 22.6604 15.5527C22.5302 15.6176 22.4003 15.683 22.335 15.7479C22.0749 15.8781 21.7494 16.0733 21.4888 16.2036C21.4888 16.2036 21.4239 16.2036 21.4239 16.2685C20.3177 16.9195 19.3413 17.5699 18.3653 18.3512C17.975 18.6767 17.6495 18.9368 17.2591 19.2622C16.9336 19.1973 16.6082 19.132 16.2831 19.0671L16.3481 18.6113C16.6082 17.4402 17.3894 16.5286 18.4956 16.1383L20.3826 15.4224C21.2287 15.097 22.0095 14.5763 22.6604 13.9258L24.1571 12.2989C24.4172 12.0388 24.7427 11.7782 25.133 11.583C25.784 11.2575 26.0441 10.4768 25.7186 9.82585C25.3931 9.1749 24.6124 8.91481 23.9614 9.24027C23.3105 9.56574 22.7903 9.95613 22.2696 10.4768L20.7085 12.169L20.4483 12.4292C20.3181 12.4292 20.1229 12.4292 19.9926 12.3642L18.1056 11.9739C16.0884 11.5835 14.071 12.169 12.5739 13.6008L11.0773 15.0974C10.6869 15.4878 10.2311 15.7483 9.77587 15.9435L7.82347 16.6594C5.87106 17.3103 4.43939 18.9373 3.91866 20.8891L3.59319 22.5813C3.46291 23.102 3.2028 23.6226 2.81242 24.013L1.51101 25.5096C0.144177 27.0063 -0.311123 29.0889 0.209602 31.0413L0.795183 33.1889C0.925463 33.7095 0.925463 34.2302 0.860095 34.7508L0.469708 36.7032C0.274514 37.5493 0.339428 38.3951 0.53462 39.1762C0.144233 42.7555 0.53462 46.3348 1.64086 49.7837C2.16152 51.4106 2.812 52.9726 3.6581 54.4692C4.69943 56.2914 6.58641 57.3975 8.60377 57.3975C9.25472 57.3975 9.90518 57.2673 10.5562 57.0721L10.6865 57.0071L56.5001 40.2163C59.1679 39.2404 60.665 36.5722 60.1442 33.839L60.1447 33.8395ZM3.46341 27.2016L4.76481 25.705C5.41576 24.9891 5.87105 24.0781 6.13165 23.167L6.5874 21.4751C6.84751 20.3689 7.69364 19.4579 8.79987 19.0674L10.7523 18.3516C11.5984 18.0261 12.3792 17.5708 13.0302 16.9199L14.5268 15.4233C14.9826 14.9675 15.5028 14.7074 16.0888 14.5122C14.9176 15.3583 14.1364 16.5949 13.8109 18.0261L13.5503 19.067C12.8993 19.1319 12.2489 19.3271 11.5979 19.5227C10.9469 19.7828 10.5566 20.4987 10.8171 21.2146C11.0123 21.7353 11.533 22.0607 12.0537 22.0607C12.184 22.0607 12.3792 22.0607 12.5094 21.9958C13.2902 21.7357 14.1363 21.6054 14.9171 21.6054C14.7219 21.8655 14.5268 22.0612 14.3316 22.3213L14.2666 22.3862C13.2253 23.6876 12.3142 25.0544 11.5334 26.5511C11.2733 26.616 11.0128 26.6813 10.8176 26.8112C9.77626 27.2016 8.86518 27.7222 8.01954 28.4381C8.01954 26.8112 8.67049 25.1843 9.77672 23.8829C10.2325 23.3622 10.2325 22.516 9.7118 22.0607C9.19114 21.605 8.34497 21.605 7.88967 22.1256C5.6772 24.5987 4.89594 27.9823 5.807 31.1063C5.67672 31.3015 5.61181 31.4967 5.48153 31.6919C4.4402 33.9697 4.31039 36.5726 5.15605 38.9153C5.61181 40.1519 6.32719 41.258 7.1733 42.1691C6.84782 42.4292 6.58772 42.7547 6.39252 43.0802C6.13242 42.5595 5.74158 42.0388 5.28629 41.5835L3.98488 40.2821C3.13875 39.436 2.81374 38.2649 3.00892 37.1586L3.39931 35.2062C3.5945 34.2951 3.52959 33.384 3.3344 32.5379L2.68254 30.3904C2.42198 29.2842 2.68263 28.1126 3.46341 27.2016ZM9.05996 43.9913C9.12487 44.1865 9.12487 44.3167 9.19024 44.5119C9.19024 44.6422 9.25515 44.772 9.25515 44.9023C9.32006 45.2927 9.45035 45.6182 9.51526 45.9436C9.51526 46.0739 9.58017 46.1388 9.58017 46.2691C9.71045 46.7249 9.84028 47.1802 10.0359 47.6359C10.1662 47.9614 10.296 48.2869 10.3614 48.547L10.4263 48.8071V48.872C10.5566 49.1321 10.6215 49.3927 10.7518 49.6528L10.8167 49.7177C10.8167 49.7826 10.8816 49.848 10.8816 49.9129C10.9465 50.0432 10.9465 50.1081 11.0119 50.2384L11.0768 50.3686C11.1417 50.5638 11.272 50.759 11.272 50.9542C9.71005 50.9542 8.21341 49.9129 7.62784 48.4163C7.30282 46.7244 7.82346 45.0326 9.05996 43.9913ZM5.87146 53.1671C5.09068 51.8003 4.50463 50.4339 4.04933 48.9374C3.39838 46.985 3.07337 44.9678 2.94309 42.9504L3.46376 43.4711C3.85414 43.8614 4.17962 44.3172 4.30989 44.8379L4.89547 46.5951C4.96038 46.7253 4.96038 46.8552 5.02575 46.9855C5.02575 47.7013 5.15603 48.4821 5.41613 49.1979C6.32718 51.6709 8.47471 53.2325 10.9478 53.4276C10.7526 53.6877 10.5575 53.8834 10.232 54.0786C10.0368 54.2089 9.84159 54.3387 9.58103 54.4041H9.51612C8.14882 55.0541 6.58683 54.4686 5.87146 53.1671ZM55.5896 37.8091L14.0711 52.9068C14.0711 52.8419 14.136 52.7116 14.136 52.6467V52.5818C14.136 52.4515 14.2009 52.2563 14.2009 52.126C14.2658 51.1501 14.0706 50.1736 13.6153 49.1977L13.5504 49.0021C13.4855 48.9372 13.4855 48.8718 13.4201 48.8069C13.4201 48.742 13.3552 48.6766 13.2898 48.6117V48.6766L13.2249 48.5463C13.0946 48.3511 13.0297 48.0906 12.8994 47.8954C12.8994 47.8305 12.8345 47.8305 12.8345 47.7651L12.8994 47.5704C12.7692 47.3103 12.6393 46.9848 12.574 46.7242C12.4437 46.3338 12.3139 45.8781 12.1836 45.4877C12.1836 45.4228 12.1187 45.2925 12.1187 45.2276C12.0538 44.9021 11.9235 44.5766 11.8586 44.2516C11.8586 44.1213 11.7936 44.0564 11.7936 43.9261C11.7287 43.6007 11.6634 43.3405 11.5985 43.0151C11.5985 42.8848 11.5335 42.755 11.5335 42.6247C11.4686 42.2992 11.4686 42.0391 11.4033 41.7137C11.2081 40.282 11.1432 38.7853 11.273 37.3535C11.3379 36.6377 10.7523 36.0521 10.0364 35.9867C9.32056 35.9218 8.73501 36.5074 8.66959 37.2233C8.60467 38.1343 8.60467 38.9805 8.66959 39.8915C8.2792 39.3709 7.95373 38.7853 7.69363 38.1343C7.04268 36.3772 7.17296 34.555 7.95374 32.8633C8.08402 32.6032 8.21384 32.4075 8.34412 32.1474C8.40904 32.0825 8.4744 31.9522 8.53932 31.8873C8.99507 31.2364 9.51527 30.6508 10.1662 30.1955C9.84075 31.1714 9.58064 32.1479 9.32009 33.1238C9.18981 33.8396 9.5802 34.4906 10.296 34.6857H10.5562C11.1417 34.6857 11.6624 34.2953 11.8576 33.6444C12.248 31.7574 12.8989 30.0002 13.7445 28.3079C14.5253 26.746 15.4364 25.3142 16.4777 24.0128C16.4777 24.0128 16.4777 23.9479 16.5427 23.9479C16.8681 23.5575 17.1936 23.1671 17.584 22.7767C17.6489 22.7118 17.6489 22.7118 17.7143 22.6464C18.0397 22.2561 18.4301 21.9306 18.7556 21.6051C18.8205 21.5402 18.8205 21.5402 18.8859 21.4748C20.1224 20.3686 21.4238 19.3273 22.9205 18.4811C23.1806 18.3508 23.4411 18.1556 23.7012 18.0253C23.8315 17.9604 23.8964 17.8951 24.0267 17.8302C24.8728 17.3744 25.7839 16.984 26.7599 16.659C26.8248 16.659 26.8902 16.5941 26.9551 16.5941C28.3219 16.0734 29.7531 15.748 31.1848 15.5528C40.6862 14.0561 50.3823 18.7416 55.1979 27.1363C55.2628 27.2666 55.3282 27.3964 55.3931 27.4618C55.458 27.5267 55.458 27.657 55.5234 27.7219C55.6537 27.982 55.7835 28.2426 55.9138 28.5027C55.9138 28.5676 55.9787 28.5676 55.9787 28.633C56.109 28.9584 56.2388 29.2186 56.3691 29.544C56.434 29.6743 56.4994 29.8695 56.5643 29.9998C56.6292 30.195 56.7595 30.4555 56.8244 30.6507C57.2802 31.8219 57.6052 33.0584 57.8657 34.2949C57.8671 35.7915 57.0209 37.2881 55.5897 37.8087L55.5896 37.8091ZM35.1557 26.3559C35.5461 26.3559 36.0019 26.2909 36.3923 26.1607C37.3033 25.8352 38.0192 25.1847 38.4095 24.3385C38.7999 23.4923 38.8653 22.5164 38.5398 21.6053C37.8889 19.7832 35.8066 18.8073 33.9846 19.4578C32.0976 20.1088 31.1866 22.191 31.8371 24.013C32.1626 24.9241 32.813 25.6399 33.6592 26.0303C34.1794 26.2255 34.7001 26.3557 35.1559 26.3557L35.1557 26.3559ZM34.8303 21.8655C34.9605 21.8006 35.0255 21.8006 35.1557 21.8006C35.5461 21.8006 35.9365 22.0607 36.0668 22.4515C36.1317 22.7116 36.1317 22.9722 36.0019 23.1674C35.8716 23.4275 35.6764 23.5578 35.4812 23.688C34.9605 23.8832 34.4399 23.6231 34.2446 23.1025C34.1144 22.5813 34.3745 22.0607 34.8303 21.8655ZM24.6785 38.4599C23.8324 38.0695 22.8564 38.0041 21.9453 38.3296C20.0583 38.9806 19.1473 41.0628 19.7978 42.8848C20.3184 44.3165 21.6848 45.2276 23.1819 45.2276C23.5722 45.2276 24.028 45.1627 24.4184 45.0324C26.3054 44.3814 27.2165 42.2992 26.5659 40.4772C26.1751 39.5661 25.5242 38.8502 24.6785 38.4599ZM23.4419 42.6248C22.9213 42.82 22.4006 42.5599 22.2054 42.0392C22.0102 41.5185 22.2703 40.9979 22.791 40.8026C22.9212 40.7377 22.9861 40.7377 23.1164 40.7377C23.5068 40.7377 23.8972 40.9978 24.0275 41.3887C24.2227 41.8435 23.9626 42.4296 23.4419 42.6248ZM36.6524 39.696C36.9779 40.5421 36.5221 41.4532 35.6764 41.7787C34.8303 42.1041 33.9193 41.6484 33.5938 40.8027C33.2683 39.9566 33.724 39.0455 34.5697 38.72C35.4159 38.3946 36.3919 38.8503 36.6524 39.696ZM48.0407 32.0172C48.3662 32.8634 47.9104 33.7744 47.0648 34.0999C46.2186 34.4254 45.3076 33.9696 44.9821 33.124C44.6566 32.2778 45.1124 31.3668 45.958 31.0413C46.8042 30.7158 47.7152 31.1711 48.0407 32.0172ZM39.9712 31.3663C40.2966 32.2124 39.8409 33.1235 38.9952 33.449C38.1491 33.7744 37.238 33.3187 36.9125 32.473C36.5871 31.6269 37.0428 30.7158 37.8885 30.3903C38.7346 30.0649 39.6457 30.5855 39.9712 31.3663ZM19.0817 34.4903C19.4072 35.3364 18.9514 36.2475 18.1058 36.573C17.2596 36.8984 16.3486 36.4427 16.0231 35.597C15.6976 34.7509 16.1534 33.8398 16.999 33.5143C17.8452 33.1884 18.7562 33.6442 19.0817 34.4903ZM28.5176 25.3144C28.8431 26.1606 28.3874 27.0716 27.5417 27.3971C26.6956 27.7226 25.7845 27.2668 25.459 26.4212C25.1335 25.575 25.5893 24.664 26.435 24.3385C27.2811 24.0779 28.1921 24.4683 28.5176 25.3144ZM52.6609 28.3077C52.4657 28.438 52.2051 28.5029 51.945 28.5029C51.4893 28.5029 51.0989 28.3077 50.8388 27.9173C48.8864 24.9236 46.0884 22.516 42.7692 20.9539C42.3788 20.7588 41.9231 20.5636 41.5327 20.4333C40.8817 20.1732 40.5567 19.392 40.8168 18.7414C41.0769 18.0905 41.8581 17.7655 42.5087 18.0256C42.9644 18.2207 43.4846 18.4159 43.9404 18.6111C47.6499 20.3683 50.8383 23.1015 53.0508 26.4856C53.4421 27.1365 53.3118 27.9173 52.6609 28.3077ZM55.3941 31.1712C55.6542 31.8221 55.2638 32.6029 54.6133 32.8631C54.483 32.928 54.2878 32.928 54.1576 32.928C53.6369 32.928 53.1162 32.6025 52.921 32.0818C52.7907 31.7564 52.6609 31.4963 52.5955 31.1708C52.3354 30.5198 52.5955 29.7391 53.3114 29.4789C53.9623 29.2188 54.7431 29.4789 55.0033 30.1948C55.134 30.4553 55.2643 30.7808 55.3941 31.1712ZM27.086 10.2167C27.086 9.5008 27.6715 8.91525 28.3874 8.91525C29.1032 8.91525 29.6888 9.50083 29.6888 10.2167C29.6888 10.9325 29.1032 11.5181 28.3874 11.5181C27.6715 11.5185 27.086 10.9325 27.086 10.2167Z" fill="#F5F1F3"/>
</svg>
