<svg width="67" height="59" viewBox="0 0 67 59" fill="none" xmlns="http://www.w3.org/2000/svg">
<g id="Group 4">
<g id="Rectangle 20">
<rect width="22" height="59" rx="11" fill="white"/>
<rect width="22" height="59" rx="11" fill="white"/>
</g>
<g id="Rectangle 21">
<rect x="24" y="18" width="16" height="43" rx="8" transform="rotate(-90 24 18)" fill="white"/>
<rect x="24" y="18" width="16" height="43" rx="8" transform="rotate(-90 24 18)" fill="white"/>
</g>
<g id="Rectangle 22">
<rect x="24" y="58" width="16" height="43" rx="8" transform="rotate(-90 24 58)" fill="white"/>
<rect x="24" y="58" width="16" height="43" rx="8" transform="rotate(-90 24 58)" fill="white"/>
</g>
<path id="Rectangle 24" d="M31.5 38C27.3579 38 24 34.6421 24 30.5C24 26.3579 27.3579 23 31.5 23H45.5H59.5C63.6421 23 67 26.3579 67 30.5C67 34.6421 63.6421 38 59.5 38H57.7993C55.697 38 53.6912 37.1177 52.2706 35.5679L49.0509 32.0555C49.017 32.0186 48.9873 31.9782 48.9621 31.935L48.6866 31.4627C47.263 29.0223 43.737 29.0223 42.3134 31.4627C42.1059 31.8184 41.8404 32.1368 41.5277 32.4048L37.1065 36.1944C35.7472 37.3596 34.0159 38 32.2256 38H31.5Z" fill="black"/>
</g>
</svg>
